G04 #@! TF.GenerationSoftware,KiCad,Pcbnew,(5.1.4)-1*
G04 #@! TF.CreationDate,2020-09-26T15:36:51+02:00*
G04 #@! TF.ProjectId,TrabantLamp3,54726162-616e-4744-9c61-6d70332e6b69,Rev*
G04 #@! TF.SameCoordinates,Original*
G04 #@! TF.FileFunction,Copper,L2,Bot*
G04 #@! TF.FilePolarity,Positive*
%FSLAX46Y46*%
G04 Gerber Fmt 4.6, Leading zero omitted, Abs format (unit mm)*
G04 Created by KiCad (PCBNEW (5.1.4)-1) date 2020-09-26 15:36:51*
%MOMM*%
%LPD*%
G04 APERTURE LIST*
%ADD10R,0.900000X1.200000*%
%ADD11C,0.900000*%
%ADD12C,0.100000*%
%ADD13C,2.000000*%
%ADD14C,0.800000*%
%ADD15C,0.254000*%
G04 APERTURE END LIST*
D10*
X100725000Y-86600000D03*
X99275000Y-89400000D03*
X99275000Y-86600000D03*
X100725000Y-89400000D03*
D11*
X106997398Y-108022703D03*
D12*
G36*
X106254936Y-107916637D02*
G01*
X106891332Y-107280241D01*
X107739860Y-108128769D01*
X107103464Y-108765165D01*
X106254936Y-107916637D01*
X106254936Y-107916637D01*
G37*
D11*
X110002602Y-108977297D03*
D12*
G36*
X109260140Y-108871231D02*
G01*
X109896536Y-108234835D01*
X110745064Y-109083363D01*
X110108668Y-109719759D01*
X109260140Y-108871231D01*
X109260140Y-108871231D01*
G37*
D11*
X108022703Y-106997398D03*
D12*
G36*
X107280241Y-106891332D02*
G01*
X107916637Y-106254936D01*
X108765165Y-107103464D01*
X108128769Y-107739860D01*
X107280241Y-106891332D01*
X107280241Y-106891332D01*
G37*
D11*
X108977297Y-110002602D03*
D12*
G36*
X108234835Y-109896536D02*
G01*
X108871231Y-109260140D01*
X109719759Y-110108668D01*
X109083363Y-110745064D01*
X108234835Y-109896536D01*
X108234835Y-109896536D01*
G37*
D11*
X89997398Y-108977297D03*
D12*
G36*
X90103464Y-108234835D02*
G01*
X90739860Y-108871231D01*
X89891332Y-109719759D01*
X89254936Y-109083363D01*
X90103464Y-108234835D01*
X90103464Y-108234835D01*
G37*
D11*
X93002602Y-108022703D03*
D12*
G36*
X93108668Y-107280241D02*
G01*
X93745064Y-107916637D01*
X92896536Y-108765165D01*
X92260140Y-108128769D01*
X93108668Y-107280241D01*
X93108668Y-107280241D01*
G37*
D11*
X91022703Y-110002602D03*
D12*
G36*
X91128769Y-109260140D02*
G01*
X91765165Y-109896536D01*
X90916637Y-110745064D01*
X90280241Y-110108668D01*
X91128769Y-109260140D01*
X91128769Y-109260140D01*
G37*
D11*
X91977297Y-106997398D03*
D12*
G36*
X92083363Y-106254936D02*
G01*
X92719759Y-106891332D01*
X91871231Y-107739860D01*
X91234835Y-107103464D01*
X92083363Y-106254936D01*
X92083363Y-106254936D01*
G37*
D13*
X100000000Y-96000000D03*
X100000000Y-104000000D03*
X108000000Y-100000000D03*
X92000000Y-100000000D03*
D14*
X100000000Y-96000000D02*
X100000000Y-96000000D01*
X100000000Y-101000000D02*
X100000000Y-96000000D01*
X100000000Y-101025305D02*
X100000000Y-101000000D01*
X93002602Y-108022703D02*
X100000000Y-101025305D01*
X99275000Y-95275000D02*
X99275000Y-89400000D01*
X100000000Y-96000000D02*
X99275000Y-95275000D01*
X101750000Y-102750000D02*
X100000000Y-101000000D01*
X102500000Y-103500000D02*
X101750000Y-102750000D01*
X104525305Y-103500000D02*
X102500000Y-103500000D01*
X108022703Y-106997398D02*
X104525305Y-103500000D01*
D15*
G36*
X101767240Y-86802800D02*
G01*
X103160005Y-87065411D01*
X104516966Y-87474576D01*
X105822747Y-88025659D01*
X107062554Y-88712416D01*
X108222340Y-89527066D01*
X109288964Y-90460379D01*
X110250339Y-91501779D01*
X111095575Y-92639467D01*
X111815093Y-93860553D01*
X112400741Y-95151202D01*
X112845884Y-96496789D01*
X113145478Y-97882070D01*
X113296129Y-99291347D01*
X113296129Y-100708653D01*
X113145478Y-102117930D01*
X112845884Y-103503211D01*
X112400741Y-104848798D01*
X111815093Y-106139447D01*
X111095575Y-107360533D01*
X110250339Y-108498221D01*
X109288964Y-109539621D01*
X108222340Y-110472934D01*
X107062554Y-111287584D01*
X105822747Y-111974341D01*
X104516966Y-112525424D01*
X103160005Y-112934589D01*
X101767240Y-113197200D01*
X100354452Y-113310281D01*
X98937648Y-113272552D01*
X97532881Y-113084439D01*
X96156067Y-112748074D01*
X94822806Y-112267269D01*
X93548205Y-111647470D01*
X92346706Y-110895701D01*
X91231921Y-110020480D01*
X90216482Y-109031722D01*
X89467874Y-108128769D01*
X91622068Y-108128769D01*
X91634328Y-108253251D01*
X91670638Y-108372949D01*
X91729603Y-108483263D01*
X91808955Y-108579954D01*
X92445351Y-109216350D01*
X92542042Y-109295702D01*
X92652356Y-109354667D01*
X92772054Y-109390977D01*
X92896536Y-109403237D01*
X93021018Y-109390977D01*
X93140716Y-109354667D01*
X93251030Y-109295702D01*
X93347721Y-109216350D01*
X94196249Y-108367822D01*
X94275601Y-108271131D01*
X94334566Y-108160817D01*
X94337339Y-108151676D01*
X98365000Y-104124016D01*
X98365000Y-104161033D01*
X98427832Y-104476912D01*
X98551082Y-104774463D01*
X98730013Y-105042252D01*
X98957748Y-105269987D01*
X99225537Y-105448918D01*
X99523088Y-105572168D01*
X99838967Y-105635000D01*
X100161033Y-105635000D01*
X100476912Y-105572168D01*
X100774463Y-105448918D01*
X101042252Y-105269987D01*
X101269987Y-105042252D01*
X101448918Y-104774463D01*
X101572168Y-104476912D01*
X101635000Y-104161033D01*
X101635000Y-104098711D01*
X101732196Y-104195907D01*
X101764604Y-104235396D01*
X101804092Y-104267803D01*
X101922202Y-104364734D01*
X102018309Y-104416104D01*
X102102007Y-104460841D01*
X102297105Y-104520024D01*
X102449162Y-104535000D01*
X102449171Y-104535000D01*
X102499999Y-104540006D01*
X102550827Y-104535000D01*
X104096595Y-104535000D01*
X106687967Y-107126372D01*
X106690739Y-107135512D01*
X106749704Y-107245826D01*
X106829056Y-107342517D01*
X107677584Y-108191045D01*
X107774275Y-108270397D01*
X107884589Y-108329362D01*
X108004287Y-108365672D01*
X108128769Y-108377932D01*
X108253251Y-108365672D01*
X108372949Y-108329362D01*
X108483263Y-108270397D01*
X108579954Y-108191045D01*
X109216350Y-107554649D01*
X109295702Y-107457958D01*
X109354667Y-107347644D01*
X109390977Y-107227946D01*
X109403237Y-107103464D01*
X109390977Y-106978982D01*
X109354667Y-106859284D01*
X109295702Y-106748970D01*
X109216350Y-106652279D01*
X108367822Y-105803751D01*
X108271131Y-105724399D01*
X108160817Y-105665434D01*
X108151677Y-105662662D01*
X105293112Y-102804097D01*
X105260701Y-102764604D01*
X105103102Y-102635266D01*
X104923298Y-102539159D01*
X104728200Y-102479976D01*
X104576143Y-102465000D01*
X104576133Y-102465000D01*
X104525305Y-102459994D01*
X104474477Y-102465000D01*
X102928711Y-102465000D01*
X102517807Y-102054097D01*
X102517803Y-102054092D01*
X101035000Y-100571290D01*
X101035000Y-97274833D01*
X101042252Y-97269987D01*
X101269987Y-97042252D01*
X101448918Y-96774463D01*
X101572168Y-96476912D01*
X101635000Y-96161033D01*
X101635000Y-95838967D01*
X101572168Y-95523088D01*
X101448918Y-95225537D01*
X101269987Y-94957748D01*
X101042252Y-94730013D01*
X100774463Y-94551082D01*
X100476912Y-94427832D01*
X100310000Y-94394631D01*
X100310000Y-90252603D01*
X100314502Y-90244180D01*
X100350812Y-90124482D01*
X100363072Y-90000000D01*
X100363072Y-88800000D01*
X100350812Y-88675518D01*
X100314502Y-88555820D01*
X100255537Y-88445506D01*
X100176185Y-88348815D01*
X100079494Y-88269463D01*
X99969180Y-88210498D01*
X99849482Y-88174188D01*
X99725000Y-88161928D01*
X98825000Y-88161928D01*
X98700518Y-88174188D01*
X98580820Y-88210498D01*
X98470506Y-88269463D01*
X98373815Y-88348815D01*
X98294463Y-88445506D01*
X98235498Y-88555820D01*
X98199188Y-88675518D01*
X98186928Y-88800000D01*
X98186928Y-90000000D01*
X98199188Y-90124482D01*
X98235498Y-90244180D01*
X98240001Y-90252604D01*
X98240000Y-95224172D01*
X98234994Y-95275000D01*
X98240000Y-95325828D01*
X98240000Y-95325837D01*
X98254976Y-95477894D01*
X98314159Y-95672992D01*
X98375272Y-95787327D01*
X98365000Y-95838967D01*
X98365000Y-96161033D01*
X98427832Y-96476912D01*
X98551082Y-96774463D01*
X98730013Y-97042252D01*
X98957748Y-97269987D01*
X98965001Y-97274833D01*
X98965000Y-100596594D01*
X92873629Y-106687966D01*
X92864488Y-106690739D01*
X92754174Y-106749704D01*
X92657483Y-106829056D01*
X91808955Y-107677584D01*
X91729603Y-107774275D01*
X91670638Y-107884589D01*
X91634328Y-108004287D01*
X91622068Y-108128769D01*
X89467874Y-108128769D01*
X89311895Y-107940631D01*
X88528407Y-106759570D01*
X87874898Y-105501920D01*
X87358771Y-104181931D01*
X86985874Y-102814560D01*
X86760432Y-101415298D01*
X86685000Y-100000000D01*
X86760432Y-98584702D01*
X86985874Y-97185440D01*
X87358771Y-95818069D01*
X87874898Y-94498080D01*
X88528407Y-93240430D01*
X89311895Y-92059369D01*
X90216482Y-90968278D01*
X91231921Y-89979520D01*
X92346706Y-89104299D01*
X93548205Y-88352530D01*
X94822806Y-87732731D01*
X96156067Y-87251926D01*
X97532881Y-86915561D01*
X98937648Y-86727448D01*
X100354452Y-86689719D01*
X101767240Y-86802800D01*
X101767240Y-86802800D01*
G37*
X101767240Y-86802800D02*
X103160005Y-87065411D01*
X104516966Y-87474576D01*
X105822747Y-88025659D01*
X107062554Y-88712416D01*
X108222340Y-89527066D01*
X109288964Y-90460379D01*
X110250339Y-91501779D01*
X111095575Y-92639467D01*
X111815093Y-93860553D01*
X112400741Y-95151202D01*
X112845884Y-96496789D01*
X113145478Y-97882070D01*
X113296129Y-99291347D01*
X113296129Y-100708653D01*
X113145478Y-102117930D01*
X112845884Y-103503211D01*
X112400741Y-104848798D01*
X111815093Y-106139447D01*
X111095575Y-107360533D01*
X110250339Y-108498221D01*
X109288964Y-109539621D01*
X108222340Y-110472934D01*
X107062554Y-111287584D01*
X105822747Y-111974341D01*
X104516966Y-112525424D01*
X103160005Y-112934589D01*
X101767240Y-113197200D01*
X100354452Y-113310281D01*
X98937648Y-113272552D01*
X97532881Y-113084439D01*
X96156067Y-112748074D01*
X94822806Y-112267269D01*
X93548205Y-111647470D01*
X92346706Y-110895701D01*
X91231921Y-110020480D01*
X90216482Y-109031722D01*
X89467874Y-108128769D01*
X91622068Y-108128769D01*
X91634328Y-108253251D01*
X91670638Y-108372949D01*
X91729603Y-108483263D01*
X91808955Y-108579954D01*
X92445351Y-109216350D01*
X92542042Y-109295702D01*
X92652356Y-109354667D01*
X92772054Y-109390977D01*
X92896536Y-109403237D01*
X93021018Y-109390977D01*
X93140716Y-109354667D01*
X93251030Y-109295702D01*
X93347721Y-109216350D01*
X94196249Y-108367822D01*
X94275601Y-108271131D01*
X94334566Y-108160817D01*
X94337339Y-108151676D01*
X98365000Y-104124016D01*
X98365000Y-104161033D01*
X98427832Y-104476912D01*
X98551082Y-104774463D01*
X98730013Y-105042252D01*
X98957748Y-105269987D01*
X99225537Y-105448918D01*
X99523088Y-105572168D01*
X99838967Y-105635000D01*
X100161033Y-105635000D01*
X100476912Y-105572168D01*
X100774463Y-105448918D01*
X101042252Y-105269987D01*
X101269987Y-105042252D01*
X101448918Y-104774463D01*
X101572168Y-104476912D01*
X101635000Y-104161033D01*
X101635000Y-104098711D01*
X101732196Y-104195907D01*
X101764604Y-104235396D01*
X101804092Y-104267803D01*
X101922202Y-104364734D01*
X102018309Y-104416104D01*
X102102007Y-104460841D01*
X102297105Y-104520024D01*
X102449162Y-104535000D01*
X102449171Y-104535000D01*
X102499999Y-104540006D01*
X102550827Y-104535000D01*
X104096595Y-104535000D01*
X106687967Y-107126372D01*
X106690739Y-107135512D01*
X106749704Y-107245826D01*
X106829056Y-107342517D01*
X107677584Y-108191045D01*
X107774275Y-108270397D01*
X107884589Y-108329362D01*
X108004287Y-108365672D01*
X108128769Y-108377932D01*
X108253251Y-108365672D01*
X108372949Y-108329362D01*
X108483263Y-108270397D01*
X108579954Y-108191045D01*
X109216350Y-107554649D01*
X109295702Y-107457958D01*
X109354667Y-107347644D01*
X109390977Y-107227946D01*
X109403237Y-107103464D01*
X109390977Y-106978982D01*
X109354667Y-106859284D01*
X109295702Y-106748970D01*
X109216350Y-106652279D01*
X108367822Y-105803751D01*
X108271131Y-105724399D01*
X108160817Y-105665434D01*
X108151677Y-105662662D01*
X105293112Y-102804097D01*
X105260701Y-102764604D01*
X105103102Y-102635266D01*
X104923298Y-102539159D01*
X104728200Y-102479976D01*
X104576143Y-102465000D01*
X104576133Y-102465000D01*
X104525305Y-102459994D01*
X104474477Y-102465000D01*
X102928711Y-102465000D01*
X102517807Y-102054097D01*
X102517803Y-102054092D01*
X101035000Y-100571290D01*
X101035000Y-97274833D01*
X101042252Y-97269987D01*
X101269987Y-97042252D01*
X101448918Y-96774463D01*
X101572168Y-96476912D01*
X101635000Y-96161033D01*
X101635000Y-95838967D01*
X101572168Y-95523088D01*
X101448918Y-95225537D01*
X101269987Y-94957748D01*
X101042252Y-94730013D01*
X100774463Y-94551082D01*
X100476912Y-94427832D01*
X100310000Y-94394631D01*
X100310000Y-90252603D01*
X100314502Y-90244180D01*
X100350812Y-90124482D01*
X100363072Y-90000000D01*
X100363072Y-88800000D01*
X100350812Y-88675518D01*
X100314502Y-88555820D01*
X100255537Y-88445506D01*
X100176185Y-88348815D01*
X100079494Y-88269463D01*
X99969180Y-88210498D01*
X99849482Y-88174188D01*
X99725000Y-88161928D01*
X98825000Y-88161928D01*
X98700518Y-88174188D01*
X98580820Y-88210498D01*
X98470506Y-88269463D01*
X98373815Y-88348815D01*
X98294463Y-88445506D01*
X98235498Y-88555820D01*
X98199188Y-88675518D01*
X98186928Y-88800000D01*
X98186928Y-90000000D01*
X98199188Y-90124482D01*
X98235498Y-90244180D01*
X98240001Y-90252604D01*
X98240000Y-95224172D01*
X98234994Y-95275000D01*
X98240000Y-95325828D01*
X98240000Y-95325837D01*
X98254976Y-95477894D01*
X98314159Y-95672992D01*
X98375272Y-95787327D01*
X98365000Y-95838967D01*
X98365000Y-96161033D01*
X98427832Y-96476912D01*
X98551082Y-96774463D01*
X98730013Y-97042252D01*
X98957748Y-97269987D01*
X98965001Y-97274833D01*
X98965000Y-100596594D01*
X92873629Y-106687966D01*
X92864488Y-106690739D01*
X92754174Y-106749704D01*
X92657483Y-106829056D01*
X91808955Y-107677584D01*
X91729603Y-107774275D01*
X91670638Y-107884589D01*
X91634328Y-108004287D01*
X91622068Y-108128769D01*
X89467874Y-108128769D01*
X89311895Y-107940631D01*
X88528407Y-106759570D01*
X87874898Y-105501920D01*
X87358771Y-104181931D01*
X86985874Y-102814560D01*
X86760432Y-101415298D01*
X86685000Y-100000000D01*
X86760432Y-98584702D01*
X86985874Y-97185440D01*
X87358771Y-95818069D01*
X87874898Y-94498080D01*
X88528407Y-93240430D01*
X89311895Y-92059369D01*
X90216482Y-90968278D01*
X91231921Y-89979520D01*
X92346706Y-89104299D01*
X93548205Y-88352530D01*
X94822806Y-87732731D01*
X96156067Y-87251926D01*
X97532881Y-86915561D01*
X98937648Y-86727448D01*
X100354452Y-86689719D01*
X101767240Y-86802800D01*
M02*
