G04 #@! TF.GenerationSoftware,KiCad,Pcbnew,(5.1.4)-1*
G04 #@! TF.CreationDate,2020-09-26T15:36:27+02:00*
G04 #@! TF.ProjectId,TrabantLamp2,54726162-616e-4744-9c61-6d70322e6b69,Rev*
G04 #@! TF.SameCoordinates,Original*
G04 #@! TF.FileFunction,Copper,L2,Bot*
G04 #@! TF.FilePolarity,Positive*
%FSLAX46Y46*%
G04 Gerber Fmt 4.6, Leading zero omitted, Abs format (unit mm)*
G04 Created by KiCad (PCBNEW (5.1.4)-1) date 2020-09-26 15:36:27*
%MOMM*%
%LPD*%
G04 APERTURE LIST*
%ADD10R,1.650000X0.600000*%
%ADD11R,1.650000X0.800000*%
%ADD12C,2.000000*%
%ADD13C,0.800000*%
%ADD14C,0.254000*%
G04 APERTURE END LIST*
D10*
X169500000Y-80000000D03*
D11*
X169500000Y-81050000D03*
X169500000Y-78950000D03*
X172550000Y-78950000D03*
X172550000Y-81050000D03*
D10*
X172550000Y-80000000D03*
X174450000Y-80000000D03*
D11*
X174450000Y-78950000D03*
X174450000Y-81050000D03*
X177500000Y-81050000D03*
X177500000Y-78950000D03*
D10*
X177500000Y-80000000D03*
X177500000Y-91000000D03*
D11*
X177500000Y-89950000D03*
X177500000Y-92050000D03*
X174450000Y-92050000D03*
X174450000Y-89950000D03*
D10*
X174450000Y-91000000D03*
X172550000Y-91000000D03*
D11*
X172550000Y-92050000D03*
X172550000Y-89950000D03*
X169500000Y-89950000D03*
X169500000Y-92050000D03*
D10*
X169500000Y-91000000D03*
D12*
X170500000Y-84012500D03*
D13*
X171000000Y-80500000D02*
X171500000Y-80000000D01*
X169500000Y-80000000D02*
X171500000Y-80000000D01*
X171000000Y-91000000D02*
X169500000Y-91000000D01*
X176000000Y-80000000D02*
X177500000Y-80000000D01*
X171500000Y-80000000D02*
X176000000Y-80000000D01*
X176000000Y-91000000D02*
X171000000Y-91000000D01*
X177500000Y-91000000D02*
X176000000Y-91000000D01*
X171000000Y-91000000D02*
X171000000Y-80500000D01*
X170500000Y-84012500D02*
X171000000Y-84012500D01*
D14*
G36*
X169220443Y-91674910D02*
G01*
X169357483Y-91716480D01*
X169464292Y-91727000D01*
X170964292Y-91727000D01*
X171000000Y-91730517D01*
X171035708Y-91727000D01*
X177535708Y-91727000D01*
X177642517Y-91716480D01*
X177779557Y-91674910D01*
X177866230Y-91628582D01*
X178148000Y-91628582D01*
X178148000Y-93373000D01*
X168852000Y-93373000D01*
X168852000Y-91628582D01*
X169133770Y-91628582D01*
X169220443Y-91674910D01*
X169220443Y-91674910D01*
G37*
X169220443Y-91674910D02*
X169357483Y-91716480D01*
X169464292Y-91727000D01*
X170964292Y-91727000D01*
X171000000Y-91730517D01*
X171035708Y-91727000D01*
X177535708Y-91727000D01*
X177642517Y-91716480D01*
X177779557Y-91674910D01*
X177866230Y-91628582D01*
X178148000Y-91628582D01*
X178148000Y-93373000D01*
X168852000Y-93373000D01*
X168852000Y-91628582D01*
X169133770Y-91628582D01*
X169220443Y-91674910D01*
G36*
X178148000Y-90371418D02*
G01*
X177866230Y-90371418D01*
X177779557Y-90325090D01*
X177642517Y-90283520D01*
X177535708Y-90273000D01*
X171727000Y-90273000D01*
X171727000Y-84517878D01*
X171776004Y-84399572D01*
X171827000Y-84143198D01*
X171827000Y-83881802D01*
X171776004Y-83625428D01*
X171727000Y-83507122D01*
X171727000Y-80801133D01*
X171801133Y-80727000D01*
X177535708Y-80727000D01*
X177642517Y-80716480D01*
X177779557Y-80674910D01*
X177866230Y-80628582D01*
X178148001Y-80628582D01*
X178148000Y-90371418D01*
X178148000Y-90371418D01*
G37*
X178148000Y-90371418D02*
X177866230Y-90371418D01*
X177779557Y-90325090D01*
X177642517Y-90283520D01*
X177535708Y-90273000D01*
X171727000Y-90273000D01*
X171727000Y-84517878D01*
X171776004Y-84399572D01*
X171827000Y-84143198D01*
X171827000Y-83881802D01*
X171776004Y-83625428D01*
X171727000Y-83507122D01*
X171727000Y-80801133D01*
X171801133Y-80727000D01*
X177535708Y-80727000D01*
X177642517Y-80716480D01*
X177779557Y-80674910D01*
X177866230Y-80628582D01*
X178148001Y-80628582D01*
X178148000Y-90371418D01*
G36*
X169220443Y-80674910D02*
G01*
X169357483Y-80716480D01*
X169464292Y-80727000D01*
X170273001Y-80727000D01*
X170273001Y-82704656D01*
X170112928Y-82736496D01*
X169871430Y-82836528D01*
X169654087Y-82981752D01*
X169469252Y-83166587D01*
X169324028Y-83383930D01*
X169223996Y-83625428D01*
X169173000Y-83881802D01*
X169173000Y-84143198D01*
X169223996Y-84399572D01*
X169324028Y-84641070D01*
X169469252Y-84858413D01*
X169654087Y-85043248D01*
X169871430Y-85188472D01*
X170112928Y-85288504D01*
X170273001Y-85320344D01*
X170273000Y-90273000D01*
X169464292Y-90273000D01*
X169357483Y-90283520D01*
X169220443Y-90325090D01*
X169133770Y-90371418D01*
X168852000Y-90371418D01*
X168852000Y-80628582D01*
X169133770Y-80628582D01*
X169220443Y-80674910D01*
X169220443Y-80674910D01*
G37*
X169220443Y-80674910D02*
X169357483Y-80716480D01*
X169464292Y-80727000D01*
X170273001Y-80727000D01*
X170273001Y-82704656D01*
X170112928Y-82736496D01*
X169871430Y-82836528D01*
X169654087Y-82981752D01*
X169469252Y-83166587D01*
X169324028Y-83383930D01*
X169223996Y-83625428D01*
X169173000Y-83881802D01*
X169173000Y-84143198D01*
X169223996Y-84399572D01*
X169324028Y-84641070D01*
X169469252Y-84858413D01*
X169654087Y-85043248D01*
X169871430Y-85188472D01*
X170112928Y-85288504D01*
X170273001Y-85320344D01*
X170273000Y-90273000D01*
X169464292Y-90273000D01*
X169357483Y-90283520D01*
X169220443Y-90325090D01*
X169133770Y-90371418D01*
X168852000Y-90371418D01*
X168852000Y-80628582D01*
X169133770Y-80628582D01*
X169220443Y-80674910D01*
G36*
X176648000Y-75982708D02*
G01*
X176646297Y-76000000D01*
X176653093Y-76069004D01*
X176673221Y-76135356D01*
X176705907Y-76196507D01*
X176749894Y-76250106D01*
X176803493Y-76294093D01*
X176864644Y-76326779D01*
X176930996Y-76346907D01*
X177000000Y-76353703D01*
X177017291Y-76352000D01*
X178148001Y-76352000D01*
X178148001Y-79371418D01*
X177866230Y-79371418D01*
X177779557Y-79325090D01*
X177642517Y-79283520D01*
X177535708Y-79273000D01*
X171535708Y-79273000D01*
X171500000Y-79269483D01*
X171464292Y-79273000D01*
X169464292Y-79273000D01*
X169357483Y-79283520D01*
X169220443Y-79325090D01*
X169133770Y-79371418D01*
X168852000Y-79371418D01*
X168852000Y-76352000D01*
X169982709Y-76352000D01*
X170000000Y-76353703D01*
X170069004Y-76346907D01*
X170135356Y-76326779D01*
X170196507Y-76294093D01*
X170250106Y-76250106D01*
X170294093Y-76196507D01*
X170326779Y-76135356D01*
X170346907Y-76069004D01*
X170352000Y-76017292D01*
X170352000Y-76017291D01*
X170353703Y-76000000D01*
X170352000Y-75982708D01*
X170352000Y-72352000D01*
X176648001Y-72352000D01*
X176648000Y-75982708D01*
X176648000Y-75982708D01*
G37*
X176648000Y-75982708D02*
X176646297Y-76000000D01*
X176653093Y-76069004D01*
X176673221Y-76135356D01*
X176705907Y-76196507D01*
X176749894Y-76250106D01*
X176803493Y-76294093D01*
X176864644Y-76326779D01*
X176930996Y-76346907D01*
X177000000Y-76353703D01*
X177017291Y-76352000D01*
X178148001Y-76352000D01*
X178148001Y-79371418D01*
X177866230Y-79371418D01*
X177779557Y-79325090D01*
X177642517Y-79283520D01*
X177535708Y-79273000D01*
X171535708Y-79273000D01*
X171500000Y-79269483D01*
X171464292Y-79273000D01*
X169464292Y-79273000D01*
X169357483Y-79283520D01*
X169220443Y-79325090D01*
X169133770Y-79371418D01*
X168852000Y-79371418D01*
X168852000Y-76352000D01*
X169982709Y-76352000D01*
X170000000Y-76353703D01*
X170069004Y-76346907D01*
X170135356Y-76326779D01*
X170196507Y-76294093D01*
X170250106Y-76250106D01*
X170294093Y-76196507D01*
X170326779Y-76135356D01*
X170346907Y-76069004D01*
X170352000Y-76017292D01*
X170352000Y-76017291D01*
X170353703Y-76000000D01*
X170352000Y-75982708D01*
X170352000Y-72352000D01*
X176648001Y-72352000D01*
X176648000Y-75982708D01*
G36*
X178148000Y-94648000D02*
G01*
X177017292Y-94648000D01*
X177000000Y-94646297D01*
X176982709Y-94648000D01*
X176982708Y-94648000D01*
X176930996Y-94653093D01*
X176864644Y-94673221D01*
X176803493Y-94705907D01*
X176749894Y-94749894D01*
X176705907Y-94803493D01*
X176673221Y-94864644D01*
X176653093Y-94930996D01*
X176646297Y-95000000D01*
X176648001Y-95017302D01*
X176648000Y-98648000D01*
X170352000Y-98648000D01*
X170352000Y-95017291D01*
X170353703Y-95000000D01*
X170346907Y-94930996D01*
X170326779Y-94864644D01*
X170294093Y-94803493D01*
X170250106Y-94749894D01*
X170196507Y-94705907D01*
X170135356Y-94673221D01*
X170069004Y-94653093D01*
X170017292Y-94648000D01*
X170017291Y-94648000D01*
X170000000Y-94646297D01*
X169982708Y-94648000D01*
X168852000Y-94648000D01*
X168852000Y-94127000D01*
X178148000Y-94127000D01*
X178148000Y-94648000D01*
X178148000Y-94648000D01*
G37*
X178148000Y-94648000D02*
X177017292Y-94648000D01*
X177000000Y-94646297D01*
X176982709Y-94648000D01*
X176982708Y-94648000D01*
X176930996Y-94653093D01*
X176864644Y-94673221D01*
X176803493Y-94705907D01*
X176749894Y-94749894D01*
X176705907Y-94803493D01*
X176673221Y-94864644D01*
X176653093Y-94930996D01*
X176646297Y-95000000D01*
X176648001Y-95017302D01*
X176648000Y-98648000D01*
X170352000Y-98648000D01*
X170352000Y-95017291D01*
X170353703Y-95000000D01*
X170346907Y-94930996D01*
X170326779Y-94864644D01*
X170294093Y-94803493D01*
X170250106Y-94749894D01*
X170196507Y-94705907D01*
X170135356Y-94673221D01*
X170069004Y-94653093D01*
X170017292Y-94648000D01*
X170017291Y-94648000D01*
X170000000Y-94646297D01*
X169982708Y-94648000D01*
X168852000Y-94648000D01*
X168852000Y-94127000D01*
X178148000Y-94127000D01*
X178148000Y-94648000D01*
M02*
