G04 #@! TF.GenerationSoftware,KiCad,Pcbnew,(5.1.4)-1*
G04 #@! TF.CreationDate,2020-09-26T15:36:27+02:00*
G04 #@! TF.ProjectId,TrabantLamp2,54726162-616e-4744-9c61-6d70322e6b69,Rev*
G04 #@! TF.SameCoordinates,Original*
G04 #@! TF.FileFunction,Copper,L1,Top*
G04 #@! TF.FilePolarity,Positive*
%FSLAX46Y46*%
G04 Gerber Fmt 4.6, Leading zero omitted, Abs format (unit mm)*
G04 Created by KiCad (PCBNEW (5.1.4)-1) date 2020-09-26 15:36:27*
%MOMM*%
%LPD*%
G04 APERTURE LIST*
%ADD10C,0.100000*%
%ADD11C,1.425000*%
%ADD12R,0.900000X1.200000*%
%ADD13C,2.000000*%
%ADD14C,0.800000*%
%ADD15C,0.254000*%
G04 APERTURE END LIST*
D10*
G36*
X177149504Y-86276204D02*
G01*
X177173773Y-86279804D01*
X177197571Y-86285765D01*
X177220671Y-86294030D01*
X177242849Y-86304520D01*
X177263893Y-86317133D01*
X177283598Y-86331747D01*
X177301777Y-86348223D01*
X177318253Y-86366402D01*
X177332867Y-86386107D01*
X177345480Y-86407151D01*
X177355970Y-86429329D01*
X177364235Y-86452429D01*
X177370196Y-86476227D01*
X177373796Y-86500496D01*
X177375000Y-86525000D01*
X177375000Y-87450000D01*
X177373796Y-87474504D01*
X177370196Y-87498773D01*
X177364235Y-87522571D01*
X177355970Y-87545671D01*
X177345480Y-87567849D01*
X177332867Y-87588893D01*
X177318253Y-87608598D01*
X177301777Y-87626777D01*
X177283598Y-87643253D01*
X177263893Y-87657867D01*
X177242849Y-87670480D01*
X177220671Y-87680970D01*
X177197571Y-87689235D01*
X177173773Y-87695196D01*
X177149504Y-87698796D01*
X177125000Y-87700000D01*
X175875000Y-87700000D01*
X175850496Y-87698796D01*
X175826227Y-87695196D01*
X175802429Y-87689235D01*
X175779329Y-87680970D01*
X175757151Y-87670480D01*
X175736107Y-87657867D01*
X175716402Y-87643253D01*
X175698223Y-87626777D01*
X175681747Y-87608598D01*
X175667133Y-87588893D01*
X175654520Y-87567849D01*
X175644030Y-87545671D01*
X175635765Y-87522571D01*
X175629804Y-87498773D01*
X175626204Y-87474504D01*
X175625000Y-87450000D01*
X175625000Y-86525000D01*
X175626204Y-86500496D01*
X175629804Y-86476227D01*
X175635765Y-86452429D01*
X175644030Y-86429329D01*
X175654520Y-86407151D01*
X175667133Y-86386107D01*
X175681747Y-86366402D01*
X175698223Y-86348223D01*
X175716402Y-86331747D01*
X175736107Y-86317133D01*
X175757151Y-86304520D01*
X175779329Y-86294030D01*
X175802429Y-86285765D01*
X175826227Y-86279804D01*
X175850496Y-86276204D01*
X175875000Y-86275000D01*
X177125000Y-86275000D01*
X177149504Y-86276204D01*
X177149504Y-86276204D01*
G37*
D11*
X176500000Y-86987500D03*
D10*
G36*
X177149504Y-83301204D02*
G01*
X177173773Y-83304804D01*
X177197571Y-83310765D01*
X177220671Y-83319030D01*
X177242849Y-83329520D01*
X177263893Y-83342133D01*
X177283598Y-83356747D01*
X177301777Y-83373223D01*
X177318253Y-83391402D01*
X177332867Y-83411107D01*
X177345480Y-83432151D01*
X177355970Y-83454329D01*
X177364235Y-83477429D01*
X177370196Y-83501227D01*
X177373796Y-83525496D01*
X177375000Y-83550000D01*
X177375000Y-84475000D01*
X177373796Y-84499504D01*
X177370196Y-84523773D01*
X177364235Y-84547571D01*
X177355970Y-84570671D01*
X177345480Y-84592849D01*
X177332867Y-84613893D01*
X177318253Y-84633598D01*
X177301777Y-84651777D01*
X177283598Y-84668253D01*
X177263893Y-84682867D01*
X177242849Y-84695480D01*
X177220671Y-84705970D01*
X177197571Y-84714235D01*
X177173773Y-84720196D01*
X177149504Y-84723796D01*
X177125000Y-84725000D01*
X175875000Y-84725000D01*
X175850496Y-84723796D01*
X175826227Y-84720196D01*
X175802429Y-84714235D01*
X175779329Y-84705970D01*
X175757151Y-84695480D01*
X175736107Y-84682867D01*
X175716402Y-84668253D01*
X175698223Y-84651777D01*
X175681747Y-84633598D01*
X175667133Y-84613893D01*
X175654520Y-84592849D01*
X175644030Y-84570671D01*
X175635765Y-84547571D01*
X175629804Y-84523773D01*
X175626204Y-84499504D01*
X175625000Y-84475000D01*
X175625000Y-83550000D01*
X175626204Y-83525496D01*
X175629804Y-83501227D01*
X175635765Y-83477429D01*
X175644030Y-83454329D01*
X175654520Y-83432151D01*
X175667133Y-83411107D01*
X175681747Y-83391402D01*
X175698223Y-83373223D01*
X175716402Y-83356747D01*
X175736107Y-83342133D01*
X175757151Y-83329520D01*
X175779329Y-83319030D01*
X175802429Y-83310765D01*
X175826227Y-83304804D01*
X175850496Y-83301204D01*
X175875000Y-83300000D01*
X177125000Y-83300000D01*
X177149504Y-83301204D01*
X177149504Y-83301204D01*
G37*
D11*
X176500000Y-84012500D03*
D10*
G36*
X171149504Y-83301204D02*
G01*
X171173773Y-83304804D01*
X171197571Y-83310765D01*
X171220671Y-83319030D01*
X171242849Y-83329520D01*
X171263893Y-83342133D01*
X171283598Y-83356747D01*
X171301777Y-83373223D01*
X171318253Y-83391402D01*
X171332867Y-83411107D01*
X171345480Y-83432151D01*
X171355970Y-83454329D01*
X171364235Y-83477429D01*
X171370196Y-83501227D01*
X171373796Y-83525496D01*
X171375000Y-83550000D01*
X171375000Y-84475000D01*
X171373796Y-84499504D01*
X171370196Y-84523773D01*
X171364235Y-84547571D01*
X171355970Y-84570671D01*
X171345480Y-84592849D01*
X171332867Y-84613893D01*
X171318253Y-84633598D01*
X171301777Y-84651777D01*
X171283598Y-84668253D01*
X171263893Y-84682867D01*
X171242849Y-84695480D01*
X171220671Y-84705970D01*
X171197571Y-84714235D01*
X171173773Y-84720196D01*
X171149504Y-84723796D01*
X171125000Y-84725000D01*
X169875000Y-84725000D01*
X169850496Y-84723796D01*
X169826227Y-84720196D01*
X169802429Y-84714235D01*
X169779329Y-84705970D01*
X169757151Y-84695480D01*
X169736107Y-84682867D01*
X169716402Y-84668253D01*
X169698223Y-84651777D01*
X169681747Y-84633598D01*
X169667133Y-84613893D01*
X169654520Y-84592849D01*
X169644030Y-84570671D01*
X169635765Y-84547571D01*
X169629804Y-84523773D01*
X169626204Y-84499504D01*
X169625000Y-84475000D01*
X169625000Y-83550000D01*
X169626204Y-83525496D01*
X169629804Y-83501227D01*
X169635765Y-83477429D01*
X169644030Y-83454329D01*
X169654520Y-83432151D01*
X169667133Y-83411107D01*
X169681747Y-83391402D01*
X169698223Y-83373223D01*
X169716402Y-83356747D01*
X169736107Y-83342133D01*
X169757151Y-83329520D01*
X169779329Y-83319030D01*
X169802429Y-83310765D01*
X169826227Y-83304804D01*
X169850496Y-83301204D01*
X169875000Y-83300000D01*
X171125000Y-83300000D01*
X171149504Y-83301204D01*
X171149504Y-83301204D01*
G37*
D11*
X170500000Y-84012500D03*
D10*
G36*
X171149504Y-86276204D02*
G01*
X171173773Y-86279804D01*
X171197571Y-86285765D01*
X171220671Y-86294030D01*
X171242849Y-86304520D01*
X171263893Y-86317133D01*
X171283598Y-86331747D01*
X171301777Y-86348223D01*
X171318253Y-86366402D01*
X171332867Y-86386107D01*
X171345480Y-86407151D01*
X171355970Y-86429329D01*
X171364235Y-86452429D01*
X171370196Y-86476227D01*
X171373796Y-86500496D01*
X171375000Y-86525000D01*
X171375000Y-87450000D01*
X171373796Y-87474504D01*
X171370196Y-87498773D01*
X171364235Y-87522571D01*
X171355970Y-87545671D01*
X171345480Y-87567849D01*
X171332867Y-87588893D01*
X171318253Y-87608598D01*
X171301777Y-87626777D01*
X171283598Y-87643253D01*
X171263893Y-87657867D01*
X171242849Y-87670480D01*
X171220671Y-87680970D01*
X171197571Y-87689235D01*
X171173773Y-87695196D01*
X171149504Y-87698796D01*
X171125000Y-87700000D01*
X169875000Y-87700000D01*
X169850496Y-87698796D01*
X169826227Y-87695196D01*
X169802429Y-87689235D01*
X169779329Y-87680970D01*
X169757151Y-87670480D01*
X169736107Y-87657867D01*
X169716402Y-87643253D01*
X169698223Y-87626777D01*
X169681747Y-87608598D01*
X169667133Y-87588893D01*
X169654520Y-87567849D01*
X169644030Y-87545671D01*
X169635765Y-87522571D01*
X169629804Y-87498773D01*
X169626204Y-87474504D01*
X169625000Y-87450000D01*
X169625000Y-86525000D01*
X169626204Y-86500496D01*
X169629804Y-86476227D01*
X169635765Y-86452429D01*
X169644030Y-86429329D01*
X169654520Y-86407151D01*
X169667133Y-86386107D01*
X169681747Y-86366402D01*
X169698223Y-86348223D01*
X169716402Y-86331747D01*
X169736107Y-86317133D01*
X169757151Y-86304520D01*
X169779329Y-86294030D01*
X169802429Y-86285765D01*
X169826227Y-86279804D01*
X169850496Y-86276204D01*
X169875000Y-86275000D01*
X171125000Y-86275000D01*
X171149504Y-86276204D01*
X171149504Y-86276204D01*
G37*
D11*
X170500000Y-86987500D03*
D12*
X172775000Y-78600000D03*
X174225000Y-81400000D03*
X174225000Y-78600000D03*
X172775000Y-81400000D03*
X174225000Y-89600000D03*
X172775000Y-92400000D03*
X172775000Y-89600000D03*
X174225000Y-92400000D03*
D13*
X170500000Y-84012500D03*
D14*
X172775000Y-89600000D02*
X172775000Y-86225000D01*
X172775000Y-86225000D02*
X174225000Y-84775000D01*
X174437500Y-84012500D02*
X174225000Y-84225000D01*
X176500000Y-84012500D02*
X174437500Y-84012500D01*
X174225000Y-84775000D02*
X174225000Y-84225000D01*
X174225000Y-84225000D02*
X174225000Y-81400000D01*
X176500000Y-92000000D02*
X176500000Y-86987500D01*
X176500000Y-94500000D02*
X176500000Y-92000000D01*
X175000000Y-96000000D02*
X176500000Y-94500000D01*
X172000000Y-96000000D02*
X175000000Y-96000000D01*
X170500000Y-94500000D02*
X172000000Y-96000000D01*
X170500000Y-86987500D02*
X170500000Y-94500000D01*
D15*
G36*
X170873000Y-94500000D02*
G01*
X170875440Y-94524776D01*
X170882667Y-94548601D01*
X170894403Y-94570557D01*
X170910197Y-94589803D01*
X172410197Y-96089803D01*
X172429443Y-96105597D01*
X172451399Y-96117333D01*
X172475224Y-96124560D01*
X172500000Y-96127000D01*
X174500000Y-96127000D01*
X174524776Y-96124560D01*
X174548601Y-96117333D01*
X174570557Y-96105597D01*
X174589803Y-96089803D01*
X176089803Y-94589803D01*
X176105597Y-94570557D01*
X176117333Y-94548601D01*
X176124560Y-94524776D01*
X176127000Y-94500000D01*
X176127000Y-86627000D01*
X178148000Y-86627000D01*
X178148000Y-94648000D01*
X177017292Y-94648000D01*
X177000000Y-94646297D01*
X176982709Y-94648000D01*
X176982708Y-94648000D01*
X176930996Y-94653093D01*
X176864644Y-94673221D01*
X176803493Y-94705907D01*
X176749894Y-94749894D01*
X176705907Y-94803493D01*
X176673221Y-94864644D01*
X176653093Y-94930996D01*
X176646297Y-95000000D01*
X176648001Y-95017302D01*
X176648000Y-98648000D01*
X170352000Y-98648000D01*
X170352000Y-95017291D01*
X170353703Y-95000000D01*
X170346907Y-94930996D01*
X170326779Y-94864644D01*
X170294093Y-94803493D01*
X170250106Y-94749894D01*
X170196507Y-94705907D01*
X170135356Y-94673221D01*
X170069004Y-94653093D01*
X170017292Y-94648000D01*
X170017291Y-94648000D01*
X170000000Y-94646297D01*
X169982708Y-94648000D01*
X168852000Y-94648000D01*
X168852000Y-86627000D01*
X170873000Y-86627000D01*
X170873000Y-94500000D01*
X170873000Y-94500000D01*
G37*
X170873000Y-94500000D02*
X170875440Y-94524776D01*
X170882667Y-94548601D01*
X170894403Y-94570557D01*
X170910197Y-94589803D01*
X172410197Y-96089803D01*
X172429443Y-96105597D01*
X172451399Y-96117333D01*
X172475224Y-96124560D01*
X172500000Y-96127000D01*
X174500000Y-96127000D01*
X174524776Y-96124560D01*
X174548601Y-96117333D01*
X174570557Y-96105597D01*
X174589803Y-96089803D01*
X176089803Y-94589803D01*
X176105597Y-94570557D01*
X176117333Y-94548601D01*
X176124560Y-94524776D01*
X176127000Y-94500000D01*
X176127000Y-86627000D01*
X178148000Y-86627000D01*
X178148000Y-94648000D01*
X177017292Y-94648000D01*
X177000000Y-94646297D01*
X176982709Y-94648000D01*
X176982708Y-94648000D01*
X176930996Y-94653093D01*
X176864644Y-94673221D01*
X176803493Y-94705907D01*
X176749894Y-94749894D01*
X176705907Y-94803493D01*
X176673221Y-94864644D01*
X176653093Y-94930996D01*
X176646297Y-95000000D01*
X176648001Y-95017302D01*
X176648000Y-98648000D01*
X170352000Y-98648000D01*
X170352000Y-95017291D01*
X170353703Y-95000000D01*
X170346907Y-94930996D01*
X170326779Y-94864644D01*
X170294093Y-94803493D01*
X170250106Y-94749894D01*
X170196507Y-94705907D01*
X170135356Y-94673221D01*
X170069004Y-94653093D01*
X170017292Y-94648000D01*
X170017291Y-94648000D01*
X170000000Y-94646297D01*
X169982708Y-94648000D01*
X168852000Y-94648000D01*
X168852000Y-86627000D01*
X170873000Y-86627000D01*
X170873000Y-94500000D01*
G36*
X176648000Y-75982708D02*
G01*
X176646297Y-76000000D01*
X176653093Y-76069004D01*
X176673221Y-76135356D01*
X176705907Y-76196507D01*
X176749894Y-76250106D01*
X176803493Y-76294093D01*
X176864644Y-76326779D01*
X176930996Y-76346907D01*
X177000000Y-76353703D01*
X177017291Y-76352000D01*
X178148001Y-76352000D01*
X178148001Y-85373000D01*
X175500000Y-85373000D01*
X175475224Y-85375440D01*
X175451399Y-85382667D01*
X175429443Y-85394403D01*
X175410197Y-85410197D01*
X175394403Y-85429443D01*
X175382667Y-85451399D01*
X175375440Y-85475224D01*
X175373000Y-85500000D01*
X175375440Y-85524776D01*
X175382667Y-85548601D01*
X175394403Y-85570557D01*
X175410197Y-85589803D01*
X175429443Y-85605597D01*
X175451399Y-85617333D01*
X175475224Y-85624560D01*
X175500000Y-85627000D01*
X178148000Y-85627000D01*
X178148000Y-85873000D01*
X175500000Y-85873000D01*
X175475224Y-85875440D01*
X175451399Y-85882667D01*
X175429443Y-85894403D01*
X175410197Y-85910197D01*
X175394403Y-85929443D01*
X175382667Y-85951399D01*
X175375440Y-85975224D01*
X175373000Y-86000000D01*
X175373000Y-86242708D01*
X175340460Y-86303586D01*
X175307535Y-86412124D01*
X175296418Y-86525000D01*
X175296418Y-87450000D01*
X175307535Y-87562876D01*
X175340460Y-87671414D01*
X175373000Y-87732292D01*
X175373000Y-93947394D01*
X174447394Y-94873000D01*
X172552606Y-94873000D01*
X171627000Y-93947394D01*
X171627000Y-89000000D01*
X171996418Y-89000000D01*
X171996418Y-90200000D01*
X172002732Y-90264103D01*
X172021430Y-90325743D01*
X172051794Y-90382550D01*
X172092657Y-90432343D01*
X172142450Y-90473206D01*
X172199257Y-90503570D01*
X172260897Y-90522268D01*
X172325000Y-90528582D01*
X173225000Y-90528582D01*
X173289103Y-90522268D01*
X173350743Y-90503570D01*
X173407550Y-90473206D01*
X173457343Y-90432343D01*
X173498206Y-90382550D01*
X173528570Y-90325743D01*
X173547268Y-90264103D01*
X173553582Y-90200000D01*
X173553582Y-89000000D01*
X173547268Y-88935897D01*
X173528570Y-88874257D01*
X173502000Y-88824548D01*
X173502000Y-86526132D01*
X174713822Y-85314312D01*
X174741553Y-85291554D01*
X174764312Y-85263822D01*
X174764316Y-85263818D01*
X174790981Y-85231326D01*
X174832403Y-85180853D01*
X174899910Y-85054557D01*
X174900206Y-85053582D01*
X174941480Y-84917518D01*
X174955517Y-84775000D01*
X174952020Y-84739500D01*
X175363490Y-84739500D01*
X175393927Y-84796443D01*
X175465881Y-84884119D01*
X175553557Y-84956073D01*
X175653586Y-85009540D01*
X175762124Y-85042465D01*
X175875000Y-85053582D01*
X177125000Y-85053582D01*
X177237876Y-85042465D01*
X177346414Y-85009540D01*
X177446443Y-84956073D01*
X177534119Y-84884119D01*
X177606073Y-84796443D01*
X177659540Y-84696414D01*
X177692465Y-84587876D01*
X177703582Y-84475000D01*
X177703582Y-83550000D01*
X177692465Y-83437124D01*
X177659540Y-83328586D01*
X177606073Y-83228557D01*
X177534119Y-83140881D01*
X177446443Y-83068927D01*
X177346414Y-83015460D01*
X177237876Y-82982535D01*
X177125000Y-82971418D01*
X175875000Y-82971418D01*
X175762124Y-82982535D01*
X175653586Y-83015460D01*
X175553557Y-83068927D01*
X175465881Y-83140881D01*
X175393927Y-83228557D01*
X175363490Y-83285500D01*
X174952000Y-83285500D01*
X174952000Y-82175452D01*
X174978570Y-82125743D01*
X174997268Y-82064103D01*
X175003582Y-82000000D01*
X175003582Y-80800000D01*
X174997268Y-80735897D01*
X174978570Y-80674257D01*
X174948206Y-80617450D01*
X174907343Y-80567657D01*
X174857550Y-80526794D01*
X174800743Y-80496430D01*
X174739103Y-80477732D01*
X174675000Y-80471418D01*
X173775000Y-80471418D01*
X173710897Y-80477732D01*
X173649257Y-80496430D01*
X173592450Y-80526794D01*
X173542657Y-80567657D01*
X173501794Y-80617450D01*
X173471430Y-80674257D01*
X173452732Y-80735897D01*
X173446418Y-80800000D01*
X173446418Y-82000000D01*
X173452732Y-82064103D01*
X173471430Y-82125743D01*
X173498001Y-82175453D01*
X173498000Y-84189292D01*
X173494483Y-84225000D01*
X173498000Y-84260707D01*
X173498000Y-84473866D01*
X172286189Y-85685679D01*
X172258447Y-85708446D01*
X172167598Y-85819147D01*
X172100090Y-85945444D01*
X172058520Y-86082483D01*
X172044483Y-86225000D01*
X172048001Y-86260718D01*
X172048000Y-88824548D01*
X172021430Y-88874257D01*
X172002732Y-88935897D01*
X171996418Y-89000000D01*
X171627000Y-89000000D01*
X171627000Y-87732292D01*
X171659540Y-87671414D01*
X171692465Y-87562876D01*
X171703582Y-87450000D01*
X171703582Y-86525000D01*
X171692465Y-86412124D01*
X171659540Y-86303586D01*
X171627000Y-86242708D01*
X171627000Y-86000000D01*
X171624560Y-85975224D01*
X171617333Y-85951399D01*
X171605597Y-85929443D01*
X171589803Y-85910197D01*
X171570557Y-85894403D01*
X171548601Y-85882667D01*
X171524776Y-85875440D01*
X171500000Y-85873000D01*
X168852000Y-85873000D01*
X168852000Y-83881802D01*
X169173000Y-83881802D01*
X169173000Y-84143198D01*
X169223996Y-84399572D01*
X169322696Y-84637853D01*
X169340460Y-84696414D01*
X169393927Y-84796443D01*
X169465881Y-84884119D01*
X169553557Y-84956073D01*
X169582248Y-84971409D01*
X169654087Y-85043248D01*
X169871430Y-85188472D01*
X170112928Y-85288504D01*
X170369302Y-85339500D01*
X170630698Y-85339500D01*
X170887072Y-85288504D01*
X171128570Y-85188472D01*
X171345913Y-85043248D01*
X171417752Y-84971409D01*
X171446443Y-84956073D01*
X171534119Y-84884119D01*
X171606073Y-84796443D01*
X171659540Y-84696414D01*
X171677304Y-84637853D01*
X171776004Y-84399572D01*
X171827000Y-84143198D01*
X171827000Y-83881802D01*
X171776004Y-83625428D01*
X171677304Y-83387147D01*
X171659540Y-83328586D01*
X171606073Y-83228557D01*
X171534119Y-83140881D01*
X171446443Y-83068927D01*
X171417752Y-83053591D01*
X171345913Y-82981752D01*
X171128570Y-82836528D01*
X170887072Y-82736496D01*
X170630698Y-82685500D01*
X170369302Y-82685500D01*
X170112928Y-82736496D01*
X169871430Y-82836528D01*
X169654087Y-82981752D01*
X169582248Y-83053591D01*
X169553557Y-83068927D01*
X169465881Y-83140881D01*
X169393927Y-83228557D01*
X169340460Y-83328586D01*
X169322696Y-83387147D01*
X169223996Y-83625428D01*
X169173000Y-83881802D01*
X168852000Y-83881802D01*
X168852000Y-76352000D01*
X169982709Y-76352000D01*
X170000000Y-76353703D01*
X170069004Y-76346907D01*
X170135356Y-76326779D01*
X170196507Y-76294093D01*
X170250106Y-76250106D01*
X170294093Y-76196507D01*
X170326779Y-76135356D01*
X170346907Y-76069004D01*
X170352000Y-76017292D01*
X170352000Y-76017291D01*
X170353703Y-76000000D01*
X170352000Y-75982708D01*
X170352000Y-72352000D01*
X176648001Y-72352000D01*
X176648000Y-75982708D01*
X176648000Y-75982708D01*
G37*
X176648000Y-75982708D02*
X176646297Y-76000000D01*
X176653093Y-76069004D01*
X176673221Y-76135356D01*
X176705907Y-76196507D01*
X176749894Y-76250106D01*
X176803493Y-76294093D01*
X176864644Y-76326779D01*
X176930996Y-76346907D01*
X177000000Y-76353703D01*
X177017291Y-76352000D01*
X178148001Y-76352000D01*
X178148001Y-85373000D01*
X175500000Y-85373000D01*
X175475224Y-85375440D01*
X175451399Y-85382667D01*
X175429443Y-85394403D01*
X175410197Y-85410197D01*
X175394403Y-85429443D01*
X175382667Y-85451399D01*
X175375440Y-85475224D01*
X175373000Y-85500000D01*
X175375440Y-85524776D01*
X175382667Y-85548601D01*
X175394403Y-85570557D01*
X175410197Y-85589803D01*
X175429443Y-85605597D01*
X175451399Y-85617333D01*
X175475224Y-85624560D01*
X175500000Y-85627000D01*
X178148000Y-85627000D01*
X178148000Y-85873000D01*
X175500000Y-85873000D01*
X175475224Y-85875440D01*
X175451399Y-85882667D01*
X175429443Y-85894403D01*
X175410197Y-85910197D01*
X175394403Y-85929443D01*
X175382667Y-85951399D01*
X175375440Y-85975224D01*
X175373000Y-86000000D01*
X175373000Y-86242708D01*
X175340460Y-86303586D01*
X175307535Y-86412124D01*
X175296418Y-86525000D01*
X175296418Y-87450000D01*
X175307535Y-87562876D01*
X175340460Y-87671414D01*
X175373000Y-87732292D01*
X175373000Y-93947394D01*
X174447394Y-94873000D01*
X172552606Y-94873000D01*
X171627000Y-93947394D01*
X171627000Y-89000000D01*
X171996418Y-89000000D01*
X171996418Y-90200000D01*
X172002732Y-90264103D01*
X172021430Y-90325743D01*
X172051794Y-90382550D01*
X172092657Y-90432343D01*
X172142450Y-90473206D01*
X172199257Y-90503570D01*
X172260897Y-90522268D01*
X172325000Y-90528582D01*
X173225000Y-90528582D01*
X173289103Y-90522268D01*
X173350743Y-90503570D01*
X173407550Y-90473206D01*
X173457343Y-90432343D01*
X173498206Y-90382550D01*
X173528570Y-90325743D01*
X173547268Y-90264103D01*
X173553582Y-90200000D01*
X173553582Y-89000000D01*
X173547268Y-88935897D01*
X173528570Y-88874257D01*
X173502000Y-88824548D01*
X173502000Y-86526132D01*
X174713822Y-85314312D01*
X174741553Y-85291554D01*
X174764312Y-85263822D01*
X174764316Y-85263818D01*
X174790981Y-85231326D01*
X174832403Y-85180853D01*
X174899910Y-85054557D01*
X174900206Y-85053582D01*
X174941480Y-84917518D01*
X174955517Y-84775000D01*
X174952020Y-84739500D01*
X175363490Y-84739500D01*
X175393927Y-84796443D01*
X175465881Y-84884119D01*
X175553557Y-84956073D01*
X175653586Y-85009540D01*
X175762124Y-85042465D01*
X175875000Y-85053582D01*
X177125000Y-85053582D01*
X177237876Y-85042465D01*
X177346414Y-85009540D01*
X177446443Y-84956073D01*
X177534119Y-84884119D01*
X177606073Y-84796443D01*
X177659540Y-84696414D01*
X177692465Y-84587876D01*
X177703582Y-84475000D01*
X177703582Y-83550000D01*
X177692465Y-83437124D01*
X177659540Y-83328586D01*
X177606073Y-83228557D01*
X177534119Y-83140881D01*
X177446443Y-83068927D01*
X177346414Y-83015460D01*
X177237876Y-82982535D01*
X177125000Y-82971418D01*
X175875000Y-82971418D01*
X175762124Y-82982535D01*
X175653586Y-83015460D01*
X175553557Y-83068927D01*
X175465881Y-83140881D01*
X175393927Y-83228557D01*
X175363490Y-83285500D01*
X174952000Y-83285500D01*
X174952000Y-82175452D01*
X174978570Y-82125743D01*
X174997268Y-82064103D01*
X175003582Y-82000000D01*
X175003582Y-80800000D01*
X174997268Y-80735897D01*
X174978570Y-80674257D01*
X174948206Y-80617450D01*
X174907343Y-80567657D01*
X174857550Y-80526794D01*
X174800743Y-80496430D01*
X174739103Y-80477732D01*
X174675000Y-80471418D01*
X173775000Y-80471418D01*
X173710897Y-80477732D01*
X173649257Y-80496430D01*
X173592450Y-80526794D01*
X173542657Y-80567657D01*
X173501794Y-80617450D01*
X173471430Y-80674257D01*
X173452732Y-80735897D01*
X173446418Y-80800000D01*
X173446418Y-82000000D01*
X173452732Y-82064103D01*
X173471430Y-82125743D01*
X173498001Y-82175453D01*
X173498000Y-84189292D01*
X173494483Y-84225000D01*
X173498000Y-84260707D01*
X173498000Y-84473866D01*
X172286189Y-85685679D01*
X172258447Y-85708446D01*
X172167598Y-85819147D01*
X172100090Y-85945444D01*
X172058520Y-86082483D01*
X172044483Y-86225000D01*
X172048001Y-86260718D01*
X172048000Y-88824548D01*
X172021430Y-88874257D01*
X172002732Y-88935897D01*
X171996418Y-89000000D01*
X171627000Y-89000000D01*
X171627000Y-87732292D01*
X171659540Y-87671414D01*
X171692465Y-87562876D01*
X171703582Y-87450000D01*
X171703582Y-86525000D01*
X171692465Y-86412124D01*
X171659540Y-86303586D01*
X171627000Y-86242708D01*
X171627000Y-86000000D01*
X171624560Y-85975224D01*
X171617333Y-85951399D01*
X171605597Y-85929443D01*
X171589803Y-85910197D01*
X171570557Y-85894403D01*
X171548601Y-85882667D01*
X171524776Y-85875440D01*
X171500000Y-85873000D01*
X168852000Y-85873000D01*
X168852000Y-83881802D01*
X169173000Y-83881802D01*
X169173000Y-84143198D01*
X169223996Y-84399572D01*
X169322696Y-84637853D01*
X169340460Y-84696414D01*
X169393927Y-84796443D01*
X169465881Y-84884119D01*
X169553557Y-84956073D01*
X169582248Y-84971409D01*
X169654087Y-85043248D01*
X169871430Y-85188472D01*
X170112928Y-85288504D01*
X170369302Y-85339500D01*
X170630698Y-85339500D01*
X170887072Y-85288504D01*
X171128570Y-85188472D01*
X171345913Y-85043248D01*
X171417752Y-84971409D01*
X171446443Y-84956073D01*
X171534119Y-84884119D01*
X171606073Y-84796443D01*
X171659540Y-84696414D01*
X171677304Y-84637853D01*
X171776004Y-84399572D01*
X171827000Y-84143198D01*
X171827000Y-83881802D01*
X171776004Y-83625428D01*
X171677304Y-83387147D01*
X171659540Y-83328586D01*
X171606073Y-83228557D01*
X171534119Y-83140881D01*
X171446443Y-83068927D01*
X171417752Y-83053591D01*
X171345913Y-82981752D01*
X171128570Y-82836528D01*
X170887072Y-82736496D01*
X170630698Y-82685500D01*
X170369302Y-82685500D01*
X170112928Y-82736496D01*
X169871430Y-82836528D01*
X169654087Y-82981752D01*
X169582248Y-83053591D01*
X169553557Y-83068927D01*
X169465881Y-83140881D01*
X169393927Y-83228557D01*
X169340460Y-83328586D01*
X169322696Y-83387147D01*
X169223996Y-83625428D01*
X169173000Y-83881802D01*
X168852000Y-83881802D01*
X168852000Y-76352000D01*
X169982709Y-76352000D01*
X170000000Y-76353703D01*
X170069004Y-76346907D01*
X170135356Y-76326779D01*
X170196507Y-76294093D01*
X170250106Y-76250106D01*
X170294093Y-76196507D01*
X170326779Y-76135356D01*
X170346907Y-76069004D01*
X170352000Y-76017292D01*
X170352000Y-76017291D01*
X170353703Y-76000000D01*
X170352000Y-75982708D01*
X170352000Y-72352000D01*
X176648001Y-72352000D01*
X176648000Y-75982708D01*
M02*
